<?xml version="1.0" encoding="utf-8"?>
<!-- Generator: Adobe Illustrator 22.1.0, SVG Export Plug-In . SVG Version: 6.00 Build 0)  -->
<svg version="1.1" id="Layer_1" xmlns="http://www.w3.org/2000/svg" xmlns:xlink="http://www.w3.org/1999/xlink" x="0px" y="0px"
	 viewBox="0 0 1920 1080" style="enable-background:new 0 0 1920 1080;" xml:space="preserve">
<style type="text/css">
	.st0{fill:#89CCE5;}
	.st1{fill:#358DA8;}
	.st2{fill:#FF7300;}
	.st3{fill:url(#SVGID_1_);}
	.st4{fill:#152230;}
	.st5{fill:#003A44;}
	.st6{fill:#E9ECED;}
	.st7{fill:#0E3151;}
	.st8{fill:#CE6405;}
	.st9{fill:#FCD0B1;}
	.st10{fill:#F4912D;}
	.st11{fill:#D88D48;}
	.st12{fill:#F9B587;}
	.st13{fill:#FFE0C7;}
	.st14{fill:#93521D;}
	.st15{fill:#FFF8F3;}
	.st16{fill:#FFFFFF;}
	.st17{fill:#6D3C1B;}
	.st18{fill:#6F3603;}
	.st19{fill:#EAB080;}
	.st20{fill:#432205;}
	.st21{fill:#0A0604;}
	.st22{fill:#D67B2D;}
	.st23{fill:#010101;}
	.st24{fill:#D19364;}
	.st25{fill:#323125;}
	.st26{fill:#E2A274;}
	.st27{fill:#FCF8F9;}
	.st28{fill:#F2902C;}
</style>
<title>Artboard 1</title>
<g id="Layer_4">
	<rect class="st0" width="1920" height="1080"/>
	<circle class="st1" cx="145" cy="150" r="50"/>
	<circle class="st2" cx="1214" cy="333" r="50"/>
	<circle class="st1" cx="1733" cy="918" r="50"/>
	<circle class="st1" cx="226" cy="691" r="50"/>
	<circle class="st2" cx="913" cy="576" r="50"/>
	<circle class="st1" cx="542" cy="333" r="50"/>
	<circle class="st2" cx="1197" cy="841" r="50"/>
	<circle class="st1" cx="1570" cy="490" r="50"/>
	<circle class="st1" cx="828" cy="150" r="50"/>
	<circle class="st1" cx="592" cy="968" r="50"/>
	<circle class="st1" cx="1620" cy="174" r="50"/>
	<polygon class="st1" points="442,81 363,81 363,106 363,124 363,169 327,169 327,212 328,212 328,258 292,258 292,301 371,301
		371,279 371,258 371,212 406,212 406,185 406,169 406,124 442,124 	"/>
	<polygon class="st2" points="988,758 909,758 909,783 909,801 909,846 873,846 873,889 874,889 874,935 838,935 838,978 917,978
		917,956 917,935 917,889 952,889 952,862 952,846 952,801 988,801 	"/>
	<polygon class="st1" points="301,907 222,907 222,932 222,950 222,995 186,995 186,1038 187,1038 187,1084 151,1084 151,1127
		230,1127 230,1105 230,1084 230,1038 265,1038 265,1011 265,995 265,950 301,950 	"/>
	<polygon class="st1" points="1392,791 1471,791 1471,816 1471,834 1471,879 1507,879 1507,922 1506,922 1506,968 1542,968
		1542,1011 1463,1011 1463,989 1463,968 1463,922 1428,922 1428,895 1428,879 1428,834 1392,834 	"/>
	<polygon class="st1" points="1289,-70 1368,-70 1368,-45 1368,-27 1368,18 1404,18 1404,61 1403,61 1403,107 1439,107 1439,150
		1360,150 1360,128 1360,107 1360,61 1325,61 1325,34 1325,18 1325,-27 1289,-27 	"/>
	<polygon class="st1" points="1708,370 1787,370 1787,395 1787,413 1787,458 1823,458 1823,501 1822,501 1822,547 1858,547
		1858,590 1779,590 1779,568 1779,547 1779,501 1744,501 1744,474 1744,458 1744,413 1708,413 	"/>
	<polygon class="st1" points="1063,173 984,173 984,198 984,216 984,261 948,261 948,304 949,304 949,350 913,350 913,393 992,393
		992,371 992,350 992,304 1027,304 1027,277 1027,261 1027,216 1063,216 	"/>
	<polygon class="st1" points="1414,411 1335,411 1335,436 1335,454 1335,499 1299,499 1299,542 1300,542 1300,588 1264,588
		1264,631 1343,631 1343,609 1343,588 1343,542 1378,542 1378,515 1378,499 1378,454 1414,454 	"/>
	<polygon class="st1" points="492,521 571,521 571,546 571,564 571,609 607,609 607,652 606,652 606,698 642,698 642,741 563,741
		563,719 563,698 563,652 528,652 528,625 528,609 528,564 492,564 	"/>
	<polygon class="st1" points="-39,273 40,273 40,298 40,316 40,361 76,361 76,404 75,404 75,450 111,450 111,493 32,493 32,471
		32,450 32,404 -3,404 -3,377 -3,361 -3,316 -39,316 	"/>
	<path class="st1" d="M1781.9,177L1781.9,177c8.6-6.9,21.2-5.4,28.1,3.2l43.5,54.8c6.9,8.6,5.4,21.2-3.2,28.1l0,0
		c-8.6,6.9-21.2,5.4-28.1-3.2l-43.5-54.8c-6.9-8.6-5.5-21.1,3.1-28C1781.8,177.1,1781.9,177,1781.9,177z"/>
	<path class="st1" d="M1662.5,15l43.5-54.8c6.8-8.6,19.3-10.1,28-3.3c0,0,0.1,0.1,0.1,0.1l0,0c8.6,6.8,10.1,19.3,3.3,28
		c0,0-0.1,0.1-0.1,0.1l-43.5,54.8c-6.8,8.6-19.3,10.1-28,3.3c0,0-0.1-0.1-0.1-0.1l0,0C1657.1,36.2,1655.7,23.7,1662.5,15z"/>
	<path class="st1" d="M1561.5,705.9l43.5-54.8c6.8-8.6,19.3-10.1,28-3.3c0,0,0.1,0.1,0.1,0.1l0,0c8.6,6.8,10.1,19.3,3.3,28
		c0,0-0.1,0.1-0.1,0.1l-43.5,54.8c-6.8,8.6-19.3,10.1-28,3.3c0,0-0.1-0.1-0.1-0.1l0,0C1556.1,727.1,1554.7,714.6,1561.5,705.9z"/>
	<path class="st2" d="M1228.6,1071.9l43.5-54.8c6.8-8.6,19.3-10.1,28-3.3c0,0,0.1,0.1,0.1,0.1l0,0c8.6,6.8,10.1,19.3,3.3,28
		c0,0-0.1,0.1-0.1,0.1l-43.5,54.8c-6.8,8.6-19.3,10.1-28,3.3c0,0-0.1-0.1-0.1-0.1l0,0C1223.2,1093.1,1221.7,1080.5,1228.6,1071.9z"
		/>
	<path class="st2" d="M720.6,408l43.5-54.8c6.8-8.6,19.3-10.1,28-3.3c0,0,0.1,0.1,0.1,0.1l0,0c8.6,6.8,10.1,19.3,3.3,28
		c0,0-0.1,0.1-0.1,0.1l-43.5,54.8c-6.8,8.6-19.3,10.1-28,3.3c0,0-0.1-0.1-0.1-0.1l0,0C715.2,429.2,713.7,416.6,720.6,408z"/>
	<path class="st1" d="M24.6,916l43.5-54.8c6.8-8.6,19.3-10.1,28-3.3c0,0,0.1,0.1,0.1,0.1l0,0c8.6,6.8,10.1,19.3,3.3,28
		c0,0-0.1,0.1-0.1,0.1l-43.5,54.8c-6.8,8.6-19.3,10.1-28,3.3c0,0-0.1-0.1-0.1-0.1l0,0C19.2,937.2,17.7,924.6,24.6,916z"/>
	<path class="st1" d="M371.6,856l43.5-54.8c6.8-8.6,19.3-10.1,28-3.3c0,0,0.1,0.1,0.1,0.1l0,0c8.6,6.8,10.1,19.3,3.3,28
		c0,0-0.1,0.1-0.1,0.1l-43.5,54.8c-6.8,8.6-19.3,10.1-28,3.3c0,0-0.1-0.1-0.1-0.1l0,0C366.2,877.2,364.7,864.6,371.6,856z"/>
	<path class="st1" d="M571.6,96l43.5-54.8c6.8-8.6,19.3-10.1,28-3.3c0,0,0.1,0.1,0.1,0.1l0,0c8.6,6.8,10.1,19.3,3.3,28
		c0,0-0.1,0.1-0.1,0.1l-43.5,54.8c-6.8,8.6-19.3,10.1-28,3.3c0,0-0.1-0.1-0.1-0.1l0,0C566.2,117.2,564.7,104.6,571.6,96z"/>
	<path class="st2" d="M1054.6,646l43.5-54.8c6.8-8.6,19.3-10.1,28-3.3c0,0,0.1,0.1,0.1,0.1l0,0c8.6,6.8,10.1,19.3,3.3,28
		c0,0-0.1,0.1-0.1,0.1l-43.5,54.8c-6.8,8.6-19.3,10.1-28,3.3c0,0-0.1-0.1-0.1-0.1l0,0C1049.2,667.2,1047.7,654.6,1054.6,646z"/>
	<path class="st1" d="M1432.8,258L1432.8,258c8.6-6.9,21.2-5.4,28.1,3.2l43.5,54.8c6.9,8.6,5.4,21.2-3.2,28.1l0,0
		c-8.6,6.9-21.2,5.4-28.1-3.2l-43.5-54.8C1422.7,277.5,1424.2,264.9,1432.8,258z"/>
	<path class="st1" d="M1112.8-3.1L1112.8-3.1c8.6-6.9,21.2-5.4,28.1,3.2l43.5,54.8c6.9,8.6,5.4,21.2-3.2,28.1l0,0
		c-8.6,6.9-21.2,5.4-28.1-3.2L1109.6,25C1102.7,16.4,1104.2,3.8,1112.8-3.1z"/>
	<path class="st1" d="M1885.8,762L1885.8,762c8.6-6.9,21.2-5.4,28.1,3.2l43.5,54.8c6.9,8.6,5.4,21.2-3.2,28.1l0,0
		c-8.6,6.9-21.2,5.4-28.1-3.2l-43.5-54.8C1875.7,781.5,1877.2,768.9,1885.8,762z"/>
	<path class="st2" d="M681.8,797.9L681.8,797.9c8.6-6.9,21.2-5.4,28.1,3.2l43.5,54.8c6.9,8.6,5.4,21.2-3.2,28.1l0,0
		c-8.6,6.9-21.2,5.4-28.1-3.2L678.6,826C671.7,817.4,673.2,804.8,681.8,797.9z"/>
	<path class="st1" d="M250.8,446.9L250.8,446.9c8.6-6.9,21.2-5.4,28.1,3.2l43.5,54.8c6.9,8.6,5.4,21.2-3.2,28.1l0,0
		c-8.6,6.9-21.2,5.4-28.1-3.2L247.6,475C240.7,466.4,242.2,453.8,250.8,446.9z"/>

		<radialGradient id="SVGID_1_" cx="1314.2842" cy="-109.5954" r="604.9065" gradientTransform="matrix(0.99 -0.17 -0.17 -1.01 -338.05 1059.89)" gradientUnits="userSpaceOnUse">
		<stop  offset="0.44" style="stop-color:#FFFFFF"/>
		<stop  offset="0.5" style="stop-color:#F5F5F5"/>
		<stop  offset="0.62" style="stop-color:#D9D9D9"/>
		<stop  offset="0.76" style="stop-color:#ABABAB"/>
		<stop  offset="0.94" style="stop-color:#6D6D6D"/>
		<stop  offset="1" style="stop-color:#565656"/>
	</radialGradient>
	<path class="st3" d="M1249,1658.1c-8,1.4-16.1,2-24.2,2l-470.4-3c-37.4-0.2-72.7-15.4-99.4-42.8c-26.6-27.1-41.4-63.6-41.4-101.6
		L613.1,388c0-79.1,63-143,140.6-142.5l470.4,3c77.6,0.5,140.7,65.2,140.7,144.3l0.6,1124.8c0.2,37.8-14.7,74.1-41.2,101
		C1303.9,1639.3,1277.6,1653.2,1249,1658.1z M733.5,270.5c-55.3,9.4-97.5,58.5-97.4,117.6l0.6,1124.8c0,31.8,12.4,62.3,34.6,85
		c22.3,22.9,51.8,35.6,83.1,35.8l470.4,3c31.3,0.2,61.3-12.3,83.1-34.7c22.3-22.5,34.7-52.9,34.6-84.5l-0.6-1124.7
		c0-66.2-52.9-120.4-117.8-120.8l-470.4-3C746.9,268.9,740.2,269.4,733.5,270.5z"/>
	<polygon class="st1" points="620.4,1518.1 613.5,1518.1 613.2,387.9 620.1,388 	"/>
	<polygon class="st4" points="1366,1516.4 1359.1,1516.4 1358.5,392 1365.4,392 	"/>
	<path class="st5" d="M743,270h492c59.1,0,107,47.9,107,107v1138c0,59.1-47.9,107-107,107H743c-59.1,0-107-47.9-107-107V377
		C636,317.9,683.9,270,743,270z"/>
	<path class="st4" d="M1245,1645.6c-7,1.2-14.2,1.8-21.3,1.7l0,0l-467.3-3c-34.1-0.2-66.2-14-90.5-39
		c-24.2-24.7-37.7-57.9-37.7-92.5l-0.6-1128.1c0-72,57.4-130.3,128-129.8l463.3,3c70.6,0.5,128.1,59.4,128.2,131.5l0.6,1132.2
		C1347.8,1583.9,1303.4,1635.6,1245,1645.6z M1223.7,1623.9c55.8,0.3,101.1-45.6,101.1-102.5l-0.6-1132.2
		c0-59.1-47.2-107.5-105.2-107.9l-463.3-3c-58-0.4-105.1,47.4-105.1,106.6l0.6,1128.1c0,28.4,11.1,55.6,30.9,75.9
		c19.5,20.2,46.2,31.8,74.3,32L1223.7,1623.9z"/>
	<path class="st4" d="M1151.3,282.1v38.6c0,14.2-11.3,25.7-25.2,25.6L846,344.6c-13.9-0.1-25.3-11.8-25.3-25.9v-45.8"/>
	<path class="st4" d="M1132.4,357.6c-2.1,0.4-4.2,0.5-6.3,0.5L846,356.3c-9.8-0.1-19.2-4.1-26-11.2c-6.9-7.1-10.8-16.6-10.8-26.5
		v-45.8l23,0.1v45.8c0,3.7,1.5,7.3,4.1,9.9c2.5,2.7,6,4.2,9.7,4.2l280.1,1.8c3.7,0,7.2-1.5,9.7-4.1c2.6-2.6,4-6.2,4-9.9V282l23,0.1
		v38.6C1163,338.8,1150.2,354.4,1132.4,357.6z"/>
	<path class="st6" d="M1022.2,322.7l-77-0.5c-2.5,0-4.6-2.1-4.6-4.6c0,0,0-0.1,0-0.1l0,0c0-2.5,2-4.6,4.5-4.6c0,0,0.1,0,0.1,0l0,0
		l77,0.5c2.5,0.1,4.6,2.2,4.6,4.7l0,0C1026.8,320.6,1024.7,322.7,1022.2,322.7L1022.2,322.7z"/>

		<ellipse transform="matrix(0.9857 -0.1683 0.1683 0.9857 -38.5346 183.1947)" class="st7" cx="1061.4" cy="318.9" rx="9.2" ry="9.4"/>
	<path class="st6" d="M1063.4,330.5c-3,0.5-6.1-0.2-8.5-2c-2.5-1.8-4.2-4.5-4.8-7.6c-1.3-6.2,2.7-12.2,8.9-13.5c0,0,0,0,0,0
		c3.1-0.7,6.4,0,9,1.9c5.3,3.7,6.6,11.1,2.8,16.4c-1.7,2.4-4.3,4.1-7.2,4.7L1063.4,330.5z M1060.3,312.1L1060.3,312.1
		c-3.8,0.7-6.3,4.3-5.6,8.1c0.5,3.8,4,6.4,7.8,5.9c3.8-0.5,6.4-4,5.9-7.8c0-0.2-0.1-0.4-0.1-0.6c-0.3-1.8-1.3-3.5-2.9-4.5
		C1063.9,312.1,1062.1,311.7,1060.3,312.1z"/>
	<path class="st4" d="M1364.3,394.3l-6.9,0.3c-1.4-34.5-15.9-67.2-40.6-91.3c-24.8-24.4-57.2-38-91.2-38.2L750.9,262
		c-34.1-0.2-67,13.1-91.3,37.1c-24.6,24.1-39.1,56.7-40.3,91.1l-6.9-0.3c1.3-36.2,16.5-70.5,42.4-95.8
		c25.6-25.2,60.2-39.3,96.1-39.1l474.7,3.1c35.9,0.2,70,14.5,96,40.2C1347.5,323.7,1362.8,358,1364.3,394.3z"/>
	<path class="st4" d="M608.6,516.8L608.6,516.8c-3.2-0.1-5.8-2.7-5.7-5.9c0,0,0,0,0,0v-39.8c0-3.2,2.5-5.8,5.6-5.8c0,0,0,0,0.1,0
		l0,0c3.2,0.1,5.7,2.7,5.8,5.9V511C614.3,514.2,611.8,516.7,608.6,516.8z"/>
	<path class="st4" d="M609.8,517.8c-0.4,0.1-0.8,0.1-1.2,0.1l0,0c-3.9-0.1-7-3.2-6.9-7.1c0,0,0,0,0,0V471c0-3.8,3-6.9,6.8-7h0.1
		c3.9,0.1,7,3.2,6.9,7.1c0,0,0,0,0,0v39.8C615.5,514.3,613.1,517.2,609.8,517.8z M608.6,515.6c2.5,0,4.6-2.1,4.6-4.6l0,0v-39.8
		c0-2.5-2-4.6-4.5-4.7c-2.5,0-4.6,2-4.7,4.6l0,0v39.8C604,513.4,606.1,515.5,608.6,515.6z"/>
	<path class="st4" d="M610.7,664.5H608c-3.2-0.1-5.8-2.7-5.7-5.9c0,0,0,0,0,0v-87.4c0-3.2,2.5-5.8,5.6-5.8c0,0,0,0,0.1,0h2.8
		c3.2,0.1,5.8,2.7,5.7,5.9c0,0,0,0,0,0v87.4C616.5,661.9,613.9,664.5,610.7,664.5L610.7,664.5z"/>
	<path class="st4" d="M611.9,665.6c-0.4,0.1-0.8,0.1-1.2,0.1H608c-3.8-0.1-6.9-3.3-6.9-7.1v-87.4c-0.1-3.8,3-6.9,6.8-7h2.9
		c3.9,0.1,7,3.2,6.9,7.1c0,0,0,0,0,0v87.4C617.6,662.1,615.2,665,611.9,665.6z M607.1,566.6c-0.9,0.2-1.8,0.6-2.5,1.3
		c-0.9,0.9-1.4,2.1-1.3,3.3v87.4c0,2.5,2,4.6,4.5,4.7c0,0,0.1,0,0.1,0h2.8c2.5,0,4.6-2.1,4.6-4.6l0,0v-87.4c0-1.2-0.5-2.4-1.3-3.3
		c-0.8-0.9-2-1.4-3.2-1.4H608C607.7,566.5,607.4,566.5,607.1,566.6L607.1,566.6z"/>
	<path class="st4" d="M610.1,790.8h-2.8c-3.2-0.1-5.8-2.7-5.7-5.9c0,0,0,0,0,0v-87.4c0-3.2,2.5-5.8,5.6-5.8c0,0,0,0,0.1,0h2.8
		c3.2,0.1,5.7,2.7,5.8,5.9V785C615.8,788.2,613.3,790.7,610.1,790.8z"/>
	<path class="st4" d="M611.3,791.8c-0.4,0.1-0.8,0.1-1.2,0.1h-2.8c-3.9-0.1-7-3.2-6.9-7.1c0,0,0,0,0,0v-87.4c0-1.9,0.7-3.6,2-5
		c1.3-1.3,3.1-2,4.9-2h2.8c3.9,0.1,7,3.2,6.9,7.1c0,0,0,0,0,0V785C617,788.4,614.6,791.3,611.3,791.8z M610.1,789.6
		c2.5,0,4.6-2.1,4.6-4.6l0,0v-87.4c0-1.2-0.5-2.4-1.3-3.3c-0.8-0.9-2-1.4-3.2-1.4h-2.8c-1.2,0-2.4,0.5-3.2,1.4
		c-0.9,0.9-1.4,2.1-1.3,3.3V785c0,1.2,0.5,2.4,1.4,3.3c0.8,0.9,2,1.4,3.2,1.4L610.1,789.6z"/>
	<path class="st4" d="M1368.9,756.5h-3c-3.2-0.1-5.8-2.7-5.7-5.9c0,0,0,0,0,0l-0.1-143.1c0-3.2,2.5-5.8,5.6-5.8c0,0,0,0,0.1,0h3
		c3.2,0.1,5.8,2.7,5.7,5.9c0,0,0,0,0,0l0.1,143c0.1,3.1-2.3,5.8-5.5,5.9C1369.1,756.5,1369,756.5,1368.9,756.5L1368.9,756.5z"/>
	<path class="st4" d="M1370.1,757.6c-0.4,0.1-0.8,0.1-1.2,0.1h-3c-3.9-0.1-7-3.2-6.9-7.1c0,0,0,0,0,0l-0.1-143c-0.1-3.8,3-6.9,6.8-7
		h3.1c3.9,0.1,7,3.2,6.9,7.1c0,0,0,0,0,0l0.1,143C1375.8,754.1,1373.4,757,1370.1,757.6z M1368.9,755.3c2.5,0,4.6-2.1,4.6-4.6v-0.1
		l-0.1-143c0-2.5-2-4.6-4.5-4.7c0,0-0.1,0-0.1,0h-3c-2.5,0-4.6,2-4.6,4.6c0,0,0,0,0,0l0,0l0.1,143c0,2.5,2,4.6,4.5,4.7
		c0,0,0.1,0,0.1,0L1368.9,755.3z"/>
	<polygon class="st8" points="1726,624 1694.3,639.8 1662.5,655.7 1664.7,620.3 1666.9,584.9 1696.4,604.5 	"/>
	<polygon class="st8" points="1540.4,650.4 1507.1,638.2 1473.8,626.1 1501,603.3 1528.2,580.6 1534.3,615.5 	"/>
	<rect x="1669" y="615.7" class="st9" width="32.2" height="226.7"/>
	<polygon class="st9" points="1710,867.8 1704.7,838.2 1699.3,808.5 1691.5,825.2 1683.7,842 1696.9,854.9 	"/>

		<ellipse transform="matrix(0.2872 -0.9579 0.9579 0.2872 388.2534 2207.0696)" class="st9" cx="1677.1" cy="842.7" rx="37.9" ry="19.9"/>
	<rect x="1494.8" y="620" class="st9" width="32.2" height="214.4"/>
	<polygon class="st9" points="1486,858.4 1491.3,830.4 1496.7,802.4 1504.5,818.2 1512.3,834 1499.1,846.2 	"/>

		<ellipse transform="matrix(0.9492 -0.3148 0.3148 0.9492 -185.4698 520.6935)" class="st9" cx="1519.2" cy="834.5" rx="19.8" ry="36"/>
	<polygon class="st10" points="1725.9,625.2 1701.7,625.3 1677.5,625.4 1689.5,610.2 1701.6,595.1 1713.7,610.1 	"/>
	<polygon class="st10" points="1725.9,625.2 1701.7,625.3 1677.5,625.4 1689.5,610.2 1701.6,595.1 1713.7,610.1 	"/>
	<path class="st8" d="M1659.1,1024l24.2-114h0.1c7.6-25.2,11.9-54.1,11.9-84.9c0-96.8-42.7-175.2-95.3-175.2s-95.3,78.4-95.3,175.2
		c0,33.6,5.1,65,14,91.6v7.1L1540,1024h49V792.6c0-6.1,4.9-11,11-11s11,4.9,11,11V1024H1659.1z"/>
	<rect x="1525.6" y="566.3" class="st10" width="148.2" height="138.9"/>
	<polygon class="st10" points="1522.4,625.2 1498.2,625.3 1474,625.4 1486.1,610.2 1498.1,595.1 1510.2,610.1 	"/>
	<circle class="st8" cx="1555" cy="624.5" r="29.5"/>
	<circle class="st8" cx="1631" cy="622.3" r="31.7"/>
	<circle class="st10" cx="1546.9" cy="615.7" r="33.9"/>
	<circle class="st10" cx="1623.6" cy="615.7" r="33.9"/>
	<path class="st10" d="M1663,546.4l-14.1-17.7H1551l-14,17.5l-47.2,58.8c-4.2,5.3-3.4,13,1.9,17.2c0,0,0,0,0,0
		c2.2,1.7,4.8,2.7,7.6,2.7l100.6,0.1l100.6,0.1c6.8,0,12.3-5.4,12.3-12.2c0-2.8-0.9-5.5-2.7-7.7L1663,546.4z"/>
	<rect x="1525.8" y="683.3" class="st9" width="149.3" height="27.2"/>
	<polygon class="st11" points="1633.6,466.4 1636.8,474.6 1661.1,535.9 1661.7,500.2 1662.2,464.9 	"/>
	<polygon class="st11" points="1671.1,408.2 1671.4,407.9 1671.3,408.2 	"/>
	<polygon class="st11" points="1653.7,460.5 1650.4,470.4 1629.4,532.9 1626.9,497.2 1624.5,461.6 1625.4,460.5 	"/>
	<polygon class="st11" points="1508.9,468.6 1509.9,477.4 1517.2,543 1527.1,508.7 1537,474.7 	"/>
	<polygon class="st11" points="1535.8,465.6 1538.6,474 1559.6,536.5 1562,500.9 1564.5,465.6 	"/>
	<polygon class="st11" points="1517,469.2 1520.5,479.8 1541.5,542.3 1544,506.6 1546.4,471 1544.8,469.2 	"/>
	<path class="st11" d="M1535.4,284.8h100.1c14.4,0,26.2,11.7,26.2,26.1c0,0,0,0.1,0,0.1v151.6c0,14.4-11.7,26.2-26.1,26.2
		c0,0-0.1,0-0.1,0h-100.1c-14.4,0-26.2-11.7-26.2-26.1c0,0,0-0.1,0-0.1V311C1509.2,296.6,1520.9,284.8,1535.4,284.8
		C1535.3,284.8,1535.4,284.8,1535.4,284.8z"/>
	<path class="st9" d="M1598,435.1L1598,435.1c14.7,0,26.7,11.9,26.7,26.7c0,0,0,0,0,0v77.9c0,14.7-11.9,26.7-26.7,26.7c0,0,0,0,0,0
		l0,0c-14.7,0-26.7-11.9-26.7-26.7c0,0,0,0,0,0v-77.9C1571.3,447.1,1583.2,435.1,1598,435.1C1598,435.1,1598,435.1,1598,435.1z"/>
	<polygon class="st12" points="1624.6,538.9 1597.4,524.2 1570.2,509.4 1597.7,490.9 1625.3,472.3 1624.9,505.6 	"/>
	<ellipse class="st9" cx="1517.9" cy="423.5" rx="32.5" ry="32.7"/>
	<ellipse class="st9" cx="1651.5" cy="416.9" rx="32.5" ry="32.7"/>
	<ellipse class="st12" cx="1651.5" cy="416.9" rx="20.9" ry="21"/>
	<ellipse class="st12" cx="1517.9" cy="423.5" rx="20.9" ry="21"/>
	<path class="st9" d="M1644.3,421.5c-6.1,26-16.9,51.6-28.4,72.1c-11.7,20.1-23.9,35-37,30c-13-3.8-25.3-24.3-37-41.3
		c-11.5-18-22.3-32.6-28.4-47.5c-5.8-14.8-5.4-35,5.9-59.8c10.9-23.8,32.9-52.3,59.4-60.1c26.6-9.3,48.5,6.6,59.4,29
		C1649.7,366.6,1650.1,395.8,1644.3,421.5z"/>
	<circle class="st13" cx="1644.6" cy="416.6" r="11.2"/>
	<polygon class="st11" points="1540.7,231.5 1540.4,231 1540.5,231.4 	"/>
	<polygon class="st11" points="1554.5,301.5 1557.4,315.9 1574.4,400.8 1580.5,353.5 1586.6,306.3 1585.1,303.7 	"/>
	<polygon class="st11" points="1571.1,314.3 1583.9,322.6 1659.4,371.4 1632.1,331.1 1604.8,290.8 1601.5,290.2 	"/>
	<polygon class="st11" points="1531.9,295.7 1535,308.8 1556,398.6 1558.4,347.4 1560.9,296.2 1560.5,295.7 	"/>
	<path class="st14" d="M1592.3,1028.4c2.6-5.6-4.5-10.3-15.5-16.3c-13.2-7-26.9-13.1-41-18.2c-15.2-5.2-29.8-6.8-43.7-2
		c-13.5,4.6-26.2,15.6-29.9,31.2C1505.1,1031,1548.9,1032.8,1592.3,1028.4z"/>
	<path class="st14" d="M1607,1027.4c-2.6-5.5,4.4-10,15.2-15.9c13-6.9,26.4-12.8,40.2-17.8c15-5,29.3-6.7,42.9-2
		c13.3,4.5,25.8,15.2,29.3,30.4C1692.5,1030,1649.6,1031.8,1607,1027.4z"/>
	<path class="st15" d="M1560.3,479.8l43.5-7.1c2.4-0.4,4.7,1.2,5.1,3.6c0,0,0,0,0,0.1l0,0c0.4,2.4-1.2,4.7-3.6,5.1c0,0,0,0-0.1,0
		l-43.5,7.1c-2.4,0.4-4.7-1.2-5.1-3.6c0,0,0,0,0-0.1l0,0C1556.3,482.5,1557.9,480.2,1560.3,479.8z"/>
	<path class="st12" d="M1575.7,490.4l14.9,1.3c1.4,0.1,2.4,1.3,2.3,2.6c0,0,0,0,0,0.1l0,0c-0.1,1.4-1.3,2.4-2.6,2.3c0,0,0,0-0.1,0
		l-14.9-1.3c-1.4-0.1-2.4-1.3-2.3-2.6c0,0,0,0,0-0.1l0,0C1573.1,491.3,1574.3,490.3,1575.7,490.4
		C1575.7,490.4,1575.7,490.4,1575.7,490.4z"/>
	<path class="st11" d="M1545.2,385.9c-10.1,7.3-19.1,12.4-27.4,15.1c-2.3,0.8-3.4,2.7-2.3,4.6l0.8,1.5c1.1,2.1,3.9,4.2,5.9,4.2
		c7.6,0,15.3-2.1,23.7-6.5c2.3-1.1,3.8-6.3,3.8-11.1c0-1.2,0-2.3,0.1-3.5C1549.8,385.5,1548,383.8,1545.2,385.9z"/>
	<path class="st11" d="M1598.9,378.9c10.1,7.3,19,12.4,27.4,15.1c2.3,0.8,3.4,2.7,2.3,4.6l-0.8,1.5c-1.1,2.1-3.8,4.2-5.9,4.2
		c-7.6,0-15.3-2.1-23.6-6.5c-2.3-1.1-3.8-6.3-3.8-11.1v-3.5C1594.2,378.5,1596.1,376.8,1598.9,378.9z"/>
	<circle class="st14" cx="1540" cy="423" r="21"/>
	<circle class="st14" cx="1604" cy="417" r="21"/>
	<path class="st12" d="M1594.2,454v-0.4c0-10.3-8.4-18.6-18.6-18.6c-10.2,0-18.6,8.3-18.6,18.6v0.4H1594.2z"/>
	<path class="st14" d="M1588.7,429c-7.7-8.9-21.1-9.9-30-2.3c-0.8,0.7-1.7,1.6-2.4,2.4l-5.4-4c10.1-11.8,27.9-13.2,39.8-3.1
		c0,0,0,0,0,0c1.1,1,2.2,2.1,3.2,3.2L1588.7,429z"/>
	<circle class="st16" cx="1604" cy="417" r="15"/>
	<circle class="st17" cx="1604" cy="421" r="7"/>
	<path class="st12" d="M1592.5,427.2c5.4,6.3,14.9,7,21.1,1.6c0,0,0,0,0.1,0c2.9-2.5,4.7-5.9,5.1-9.7L1592.5,427.2z"/>
	<circle class="st16" cx="1540" cy="423" r="15"/>
	<circle class="st17" cx="1542" cy="428" r="7"/>
	<path class="st12" d="M1527.9,432.3c4.1,7.2,13.3,9.8,20.5,5.7c3.2-1.8,5.7-4.8,6.9-8.3L1527.9,432.3z"/>
	<circle class="st14" cx="1567" cy="448" r="4"/>
	<circle class="st14" cx="1583" cy="448" r="4"/>
	<rect x="1619" y="408" class="st14" width="32" height="7"/>

		<rect x="1506.7" y="420.3" transform="matrix(0.9956 -9.358703e-02 9.358703e-02 0.9956 -32.9661 143.6212)" class="st14" width="16.2" height="6"/>
	<path class="st18" d="M280.5,375.1c0,0-71.2,7-94.9,37.7c0,0,27.9,55.8,27.9,57.2s23.7-15.4,23.7-15.4v60l37.7,33.5l113-8.4
		c0,0,37.7-61.4,33.5-85.1l55.8,12.6l12.6-57.3c0,0-74-47.5-145.2-32.1L280.5,375.1z"/>
	<polygon class="st19" points="274.6,311.6 280.5,375.1 321,424 344.8,377.9 341.5,359.3 	"/>
	<path class="st19" d="M270.8,302.6c0,0,25.1,76.8,99.1,51.6s64.2-71.2,64.2-71.2s-26.5-48.9-54.4-65.6c0,0-33.5-54.4-27.9-62.8
		l1.4-27.9l-62.8-19.5l-43.3,81L270.8,302.6z"/>
	<polygon class="st19" points="388,539.9 373.3,565 279.8,548.2 	"/>
	<path class="st20" d="M372.7,565l-15.4,161.9l-23.7-1.4l4.2-131.2c0,0-47.5-12.6-47.5,47.5l-14,81l-20.9,1.4v-139l19.6-36.9
		L372.7,565z"/>
	<path class="st19" d="M185.6,412.8c0,0-54.4,33.5-58.6,100.5l117.2,27.9c0,0-16.8,47.5,32.1,48.8l-1.4-62.8l-97.7-27.9l36.3-29.3
		L185.6,412.8z"/>
	<polygon class="st19" points="255.4,724.1 256.8,779.9 270.8,777.1 276.4,724.1 	"/>
	<polygon class="st19" points="333.6,726.9 336.4,774.3 354.5,775.8 357.3,726.9 	"/>
	<path class="st21" d="M360.1,817.6L248.4,819c0,0,0-25.1,7-39.1S358.7,796.7,360.1,817.6z"/>
	<path class="st21" d="M435.5,814.8l-111.7,1.4c0,0,0-25.1,7-39.1S434.1,793.9,435.5,814.8z"/>
	<path class="st16" d="M364.1,826.7h65.6c0,0,19.7,0,5.6-11.8l-83,1.2L364.1,826.7z"/>
	<path class="st16" d="M363.9,827.4l-13.2-12l85-1.2l0.2,0.2c4.3,3.6,6,6.5,5.1,8.8c-1.5,4.1-10.2,4.2-11.2,4.2H363.9z M354.2,816.7
		l10.2,9.3h65.4c2.4,0,8.9-0.6,9.9-3.3c0.6-1.7-1-4.1-4.5-7.1L354.2,816.7z"/>
	<path class="st16" d="M248.4,817.6v11.2h104.7c0,0,20.9,1.4,7-11.2"/>
	<path class="st16" d="M355,829.5c-0.7,0-1.3,0-2-0.1H247.7v-11.9h1.4V828h104c2.7,0.2,9.8,0,10.9-2.6c0.7-1.6-0.9-4.1-4.4-7.3
		l0.9-1c4.1,3.7,5.7,6.7,4.8,8.9C364,829.1,358.2,829.5,355,829.5z"/>
	<path class="st16" d="M287.8,778.7c-1.1,2.3-2,4.7-2.8,7.1c-3.6,10.2-5.1,18.9-3.3,19.6s6.2-7,9.9-17.2c0.9-2.5,1.7-5,2.3-7.2"/>
	<path class="st16" d="M281.8,806c-0.1,0-0.3,0-0.4-0.1c-3.9-1.4,2.6-19.7,2.9-20.5c0.9-2.5,1.9-4.9,2.9-7.1l1.3,0.6
		c-1,2.2-1.9,4.6-2.8,7c-4,11.2-4.6,18.1-3.7,18.7l0,0c1,0,5-5.7,9-16.8c0.9-2.5,1.7-4.9,2.3-7.2l1.3,0.4c-0.6,2.3-1.4,4.8-2.3,7.3
		C291.9,789.1,285.7,806,281.8,806z"/>
	<path class="st16" d="M302.2,783.2c-1.1,2.4-2.2,5.1-3.3,8.1c-3.6,10.2-5.1,18.9-3.3,19.6s6.2-7,9.9-17.2c1.1-3,2-6,2.7-8.6"/>
	<path class="st16" d="M295.8,811.6c-0.2,0-0.3,0-0.4-0.1c-3.9-1.4,2.6-19.7,2.9-20.5c1-2.9,2.2-5.7,3.3-8.2l1.3,0.6
		c-1.1,2.5-2.2,5.2-3.3,8c-4,11.2-4.6,18.1-3.7,18.7l0,0c1,0,5-5.7,9-16.8c1.1-2.8,1.9-5.6,2.6-8.5l1.4,0.3
		c-0.7,2.7-1.6,5.6-2.7,8.6C305.8,794.7,299.7,811.6,295.8,811.6z"/>
	<path class="st16" d="M315.7,787c-1.1,2.3-2,4.7-2.8,7.1c-3.7,10.2-5.1,18.9-3.3,19.6s6.2-7,9.9-17.2c0.8-2.2,1.5-4.4,2.1-6.5"/>
	<path class="st16" d="M309.7,814.4c-0.2,0-0.3,0-0.4-0.1c-3.9-1.4,2.6-19.7,2.9-20.5c0.9-2.5,1.9-4.9,2.9-7.1l1.3,0.6
		c-1,2.2-1.9,4.5-2.8,7c-4,11.2-4.6,18.1-3.7,18.7l0,0c1,0,5-5.7,9-16.8c0.8-2.2,1.5-4.3,2.1-6.4l1.3,0.4c-0.6,2.1-1.3,4.3-2.1,6.5
		C319.8,797.5,313.7,814.4,309.7,814.4z"/>
	<path class="st16" d="M364.7,776.9c-1,2.2-2,4.7-3,7.4c-3.6,10.2-5.1,18.9-3.3,19.6s6.2-7,9.9-17.2c1-2.8,1.9-5.6,2.5-8"/>
	<path class="st16" d="M358.6,804.6c-0.2,0-0.3,0-0.5-0.1c-3.9-1.4,2.6-19.7,2.9-20.5c1-2.7,2-5.2,3-7.5l1.3,0.6c-1,2.3-2,4.8-3,7.4
		c-4,11.2-4.6,18.1-3.7,18.7l0,0c1,0,5-5.7,9-16.8c1-2.8,1.8-5.4,2.5-8l1.4,0.4c-0.7,2.6-1.5,5.3-2.5,8.1
		C368.7,787.7,362.5,804.6,358.6,804.6z"/>
	<path class="st16" d="M380.6,781.4c-1,2.3-2.1,4.9-3.1,7.6c-3.9,10.6-5.9,19.6-4.4,20.2s6-7.5,9.9-18.1c1-2.6,1.8-5.2,2.6-7.5"/>
	<path class="st16" d="M373.2,810c-0.1,0-0.3,0-0.4-0.1c-3.3-1.2,3.2-19,3.9-21c1-2.7,2.1-5.3,3.1-7.7l1.3,0.6
		c-1.1,2.4-2.1,4.9-3.1,7.6c-4,10.7-5.3,17.9-4.7,19.2c1.3-0.6,5-7,9-17.6c1-2.6,1.8-5.1,2.5-7.5l1.3,0.4c-0.7,2.4-1.6,5-2.6,7.6
		C383,793.3,376.7,810,373.2,810z"/>
	<path class="st16" d="M392,785.3c-0.8,1.9-1.6,3.9-2.4,6c-3.7,10.2-5.1,18.9-3.3,19.6s6.2-7,9.9-17.2c0.8-2.1,1.4-4.1,2-6"/>
	<path class="st16" d="M386.5,811.6c-0.2,0-0.3,0-0.4-0.1c-3.9-1.4,2.6-19.7,2.9-20.5c0.8-2.1,1.5-4.1,2.4-6l1.3,0.5
		c-0.8,1.9-1.6,3.9-2.4,6c-4,11.2-4.6,18.1-3.7,18.7l0,0c1,0,5-5.7,9-16.8c0.7-2,1.4-4,1.9-5.9l1.3,0.4c-0.6,2-1.2,4-2,6
		C396.6,794.7,390.4,811.6,386.5,811.6z"/>
	<path class="st19" d="M489.9,410c0,0,27.9,23.7,29.3,27.9s149.4,48.9,181.5,69.8l-5.6,9.8l-29.3-7l-29.3,22.3l-36.3-33.5
		l-122.8-32.1L489.9,410z"/>
	<path class="st22" d="M243.6,229.3l-20.9-64.2l20.9,22.3v-82.3l9.8,27.9l15.4-57.2l7,30.7L302.2,59l-5.6,36.3L335.7,59l-14,40.5
		l46.1-16.8L345.4,119l40.5-7L358,155.3l27.9-15.3l-14,33.5c0,0-11.1,4.1-13.9,5.5s-6.3-34.2-23-44s-25.1-12.6-25.1-12.6l-54.4,62.8
		l5.6,46.1C255.4,229.6,249.5,228.9,243.6,229.3z"/>

		<rect x="269.4" y="168.6" transform="matrix(0.9979 -6.540313e-02 6.540313e-02 0.9979 -10.8584 19.5037)" class="st22" width="46.1" height="14"/>
	<path class="st16" d="M293.8,188.8c-12.3,0-22.3,11.9-22.3,26.5h44.7C316.1,200.7,306.1,188.8,293.8,188.8z"/>
	<path d="M296.6,215.3c0-6.2,4.6-11.9,11.2-11.9c2.3,0,4.6,0.7,6.6,1.9c0,0,1.7,1.6,1.7,10H296.6z"/>
	<path class="st16" d="M355.7,176.4c4.2-2,8.8-2.9,13.4-2.6c10.9,0.4,18.7,9.5,17.6,18.2c-0.9,6.8-6.9,11.9-14.5,13.2L355.7,176.4z"
		/>
	<path class="st23" d="M374.8,195.8c0,0-4.8-9.4,11.2-9.8c0,0,2.8,2.8,0,9.8H374.8z"/>
	<path class="st19" d="M270.8,302.3c-9,4.8-19.4,6.5-29.5,4.9c-24.4-3.8-41.5-24.8-38.1-46.9s26-37.1,50.4-33.4
		c2.7,0.4,5.3,1,7.9,1.9L270.8,302.3z"/>
	<path class="st24" d="M269,287.2c-3.6,2.8-7.8,4.7-12.3,5.4c-2.2,0.4-4.5,0.5-6.7,0.4c-1.1,0-2.3-0.2-3.4-0.4
		c-1.1-0.2-2.2-0.5-3.3-0.8c-2.2-0.7-4.2-1.6-6.2-2.7c-1.9-1.2-3.7-2.6-5.3-4.3c-1.6-1.6-2.9-3.5-3.9-5.6c-1-2.1-1.7-4.2-2-6.5
		c-0.6-4.6,0.2-9.2,2.4-13.3c0.5-1,1.2-2,1.9-2.9c1.4-1.8,3.1-3.4,4.9-4.8c0.5-0.4,0.9-0.6,1.4-1l1.5-0.9c8.2-4.6,18-4.9,26.5-0.9
		l0.4,0.2v0.4l1.1,9.5l1.1,9.5C267.7,274.7,268.3,280.9,269,287.2z M268.9,287.1c-1-6.4-1.9-12.6-2.8-18.9l-1.3-9.4l-1.3-9.3
		l0.4,0.5c-4-1.9-8.3-2.8-12.7-2.6l-1.6,0.1l-1.6,0.2c-1.1,0.1-2.1,0.3-3.2,0.6c-2.1,0.6-4.2,1.4-6.1,2.4c-0.5,0.2-1,0.5-1.4,0.8
		c-0.4,0.3-0.9,0.6-1.4,0.9c-0.9,0.7-1.7,1.4-2.5,2.1c-1.6,1.5-3,3.3-4,5.2c-3.3,5.8-3.6,13-0.6,19c1,2,2.2,3.8,3.7,5.4
		c3,3.3,6.8,5.7,11.1,7c1.1,0.3,2.1,0.6,3.2,0.8s2.2,0.4,3.3,0.4c2.2,0.2,4.5,0.1,6.7-0.2C261.2,291.5,265.4,289.8,268.9,287.1
		L268.9,287.1z"/>
	<path class="st24" d="M267.7,277.2c-2.7,0.7-5.5,0.4-7.9-1c-2.5-1.3-4.2-3.7-4.6-6.5c-0.4-2.8,0.5-5.7,2.5-7.8
		c2-2.1,4.7-3.3,7.6-3.3h0.6l0.1,0.6c0.2,1.5,0.4,3.1,0.6,4.6s0.3,3.1,0.5,4.6C267.3,271.4,267.5,274.4,267.7,277.2z M267.6,277.1
		c-0.6-3.1-1.2-6.1-1.7-9c-0.2-1.5-0.5-2.9-0.7-4.4s-0.4-2.9-0.6-4.3l0.7,0.6c-2.5-0.1-5,0.9-6.8,2.6c-1.9,1.8-2.8,4.3-2.4,6.9
		c0.4,2.6,1.9,4.8,4.1,6.2C262.4,277.2,265,277.7,267.6,277.1L267.6,277.1z"/>
	<ellipse class="st25" cx="260.3" cy="298.4" rx="4.9" ry="4.2"/>
	<path class="st26" d="M328.1,263.3c-0.1-0.9-0.1-1.7-0.1-2.6c0-18.5,15.9-33.5,35.6-33.5c17.2,0,31.5,11.5,34.9,26.8L328.1,263.3z"
		/>
	<circle class="st24" cx="355.9" cy="245.3" r="4.2"/>
	<circle class="st24" cx="374.8" cy="241.9" r="4.2"/>
	<path class="st27" d="M316.3,299.3c-6.2-1.7-25.3-8.2-21.8-24.7c0,0,5.6-15.4,16.8,0c5,5.8,9.6,11.9,14,18.1c0,0,2.8,4.2,18.1-1.4
		c0,0,4.8-2.4,13.3,4c1.5,1.1,3.3,1.5,5.1,1c3.3-1,9.5-3.8,19.1-10.8c1-0.8,2.3-1.2,3.6-1.2c7.4,0,14.8,1.4,21.6,4.3
		c0,0,5.6,1.4,9.8-8.4l7-16.8l9.8,16.8c0,0-7.8,32.4-30.9,23.5c-2.1-0.8-4.4-1-6.6-0.3c-3.8,1.1-10.5,3.9-21.4,10.2
		c-1.8,1.1-3.9,1.5-6,1.3c-5-0.5-13.9-2.3-18.8-8.1c0,0-20.9,10.4-29.8-5.2C318.6,300.5,317.5,299.6,316.3,299.3z"/>
	<path class="st19" d="M366.4,195.8h19.5c0,0-5.6,11.2-14,9.8c-7.6-1.3-4.2-1.4-4.2-1.4"/>
	<path class="st19" d="M271.5,215.3c0,0,21.6,29.3,43.3,0H271.5z"/>
	<path class="st26" d="M271.6,215.4h0.1l0.1,0.2l0.3,0.3l0.5,0.6c0.4,0.4,0.7,0.8,1.1,1.2c0.8,0.8,1.6,1.5,2.4,2.2
		c1.6,1.4,3.4,2.7,5.2,3.9c3.6,2.3,7.7,3.7,12,3.8c4.2,0,8.3-1.4,11.7-3.9c3.4-2.5,6.4-5.6,8.8-9.1l1,1.9c-3.5,0.1-7,0.2-10.5,0.2
		c-1.7,0-3.5,0-5.2-0.1s-3.5-0.1-5.3-0.2L271.6,215.4z M271.3,215.3l10.3-0.5c3.5-0.2,7.1-0.4,10.8-0.5c1.8-0.1,3.7-0.1,5.6-0.2
		s3.7-0.1,5.6-0.1c3.8,0,7.5,0.1,11.2,0.2h2.4l-1.5,1.9c-2.7,3.6-5.9,6.7-9.6,9.3c-3.8,2.6-8.2,3.9-12.8,3.8
		c-4.5-0.3-8.8-1.9-12.4-4.6c-1.8-1.2-3.5-2.6-5.1-4.2c-0.8-0.8-1.5-1.6-2.3-2.4c-0.4-0.4-0.8-0.8-1.1-1.3l-0.5-0.6l-0.2-0.3
		l-0.1-0.2l-0.1-0.1L271.3,215.3z"/>
</g>
<path class="st4" d="M802,687.5c-2.7,1.1-4.6,3.8-6.8,5.8c-7.7,7.2-15.4,14.5-23,21.7c-0.6,0.6-1.2,1.7-2,1.2
	c-1.1-0.5-0.7-1.9-0.7-3c0-14.7-0.1-29.4,0.1-44.1c0-3.4-0.8-4.1-3.4-4c-7.6,0.2-15.1,0.1-22.7,0c-9.2-0.1-15.9-8.7-15.9-20
	c0-53.7,0.2-107.3-0.1-161c-0.1-13.7,7.9-22.2,18-22.2c159.3,0.2,318.6,0.3,477.8,0.2c9.8,0,16.5,8.2,16.5,20.4V645
	c0,10.2-4.3,16.8-13,20.1c-1.7,0-3.4,0.1-5.1,0.1H828.3c-2.3-0.2-4.5,0.7-6.1,2.4c-3.8,4-8.1,7.4-12,11.3
	C807.5,681.7,804.1,683.6,802,687.5z"/>
<path class="st28" d="M802,687.5c2-3.9,5.4-5.8,8.2-8.6c3.9-4,8.1-7.3,12-11.3c1.6-1.7,3.8-2.6,6.1-2.4h393.4c1.7,0,3.4-0.1,5.1-0.1
	c0.9,2.3,3.1,2,4.6,3.2c5,4.1,7.6,9.6,7.6,17.1c0,53.8-0.2,107.6,0.1,161.4c0.1,11.2-6.5,21.7-17.5,21.7
	c-77.8-0.2-155.5-0.1-233.3-0.1c-28.1,0-56.2,0.1-84.3-0.1c-3.1,0-6.1,1.3-8.2,3.5c-13.2,12.6-26.4,25.2-39.6,37.7
	c-3,2.9-6.1,5.6-9.2,8.4c-1.9,1.8-2.6,1.2-2.6-1.7c0-14.1,0-28.1-0.1-42.2c0-5.6-0.1-5.7-4.5-5.7c-6.9,0-13.7-0.3-20.5,0.1
	c-9.6,0.5-17.2-9-17.1-21.4c0.2-51.9,0.1-103.8,0.1-155.8C802.1,690,802.1,688.8,802,687.5z"/>
<path class="st16" d="M815,616.1h-22.1V511h35.2c9.5,0,16.9,3.1,21.9,9.2s7.6,14.8,7.6,25.9s-2.5,19.8-7.6,25.9s-12.4,9.2-21.9,9.2
	H815V616.1z M815,559.2h7.3c8.1,0,12.2-4.4,12.2-13.1s-4.1-13.1-12.2-13.1H815V559.2z"/>
<path class="st16" d="M935.7,616.1h-27.5l-21.1-40.4v40.4H865V511h34.4c4.3-0.1,8.5,0.8,12.4,2.6c3.4,1.6,6.4,4,8.7,7
	c2.3,3.1,4.1,6.6,5.2,10.3c1.2,4.1,1.8,8.3,1.7,12.5c0,8-1.6,14.5-4.7,19.4s-7.7,8.3-13.8,10.1L935.7,616.1z M887.1,558h4.2
	c4.4,0,7.7-1.1,10-3.3s3.5-5.4,3.5-9.6s-1.2-7.4-3.5-9.6s-5.7-3.3-10-3.3h-4.2V558z"/>
<path class="st16" d="M964.6,511v105.1h-22.1V511H964.6z"/>
<path class="st16" d="M995,511l20.5,64l20.6-64h24l-35.9,105.1h-17.6L971,511H995z"/>
<path class="st16" d="M1108.2,598.6h-31.6l-5.1,18.3H1048l32.4-105.1h24.1l32.4,105.1h-23.6L1108.2,598.6z M1102.4,577.8l-9.9-35
	l-9.9,35H1102.4z"/>
<path class="st16" d="M1169.6,534.9v81.9h-22.1v-81.9h-18.2v-23.1h58.4v23.1L1169.6,534.9z"/>
<path class="st16" d="M914.1,740.1c-2.1-2.2-4.5-4-7.2-5.3c-2.2-1.1-4.6-1.7-7-1.7c-2.6-0.1-5.1,0.8-7,2.5c-1.8,1.7-2.8,4-2.7,6.5
	c-0.1,1.6,0.4,3.3,1.3,4.6c1,1.2,2.2,2.3,3.5,3.1c1.6,0.9,3.2,1.7,4.9,2.3c1.8,0.6,3.7,1.3,5.5,2.1c7.2,3,12.5,6.9,15.8,11.9
	s5,11.4,5,19.4c0.1,5-0.7,9.9-2.2,14.6c-1.3,4.1-3.5,7.9-6.4,11.2c-2.9,3.1-6.4,5.6-10.3,7.2c-4.4,1.8-9.1,2.7-13.9,2.6
	c-10.7,0-20.6-3.9-29.8-11.8l9.4-22c2.8,3.2,6.1,5.9,9.8,8.1c2.9,1.7,6.2,2.6,9.6,2.6c3.6,0,6.3-1,8-3.1c1.7-1.9,2.6-4.4,2.6-6.9
	c0-1.4-0.2-2.8-0.7-4.1c-0.5-1.2-1.2-2.3-2.2-3.2c-1.2-1.1-2.6-2-4.1-2.7c-1.7-0.8-3.7-1.8-6.1-2.8c-2.8-1.1-5.6-2.3-8.4-3.7
	c-2.7-1.3-5.2-3.1-7.3-5.3c-2.3-2.4-4-5.3-5.2-8.4c-1.4-4.1-2.1-8.5-2-12.9c-0.1-4.8,0.6-9.5,2.1-14.1c1.2-3.9,3.2-7.6,5.8-10.8
	c2.5-3,5.7-5.4,9.2-7c3.8-1.7,8-2.6,12.2-2.5c4.5,0,8.9,0.8,13.2,2.2c4.7,1.4,9.1,3.6,13.2,6.3L914.1,740.1z"/>
<path class="st16" d="M934.6,818.1V713.3h22l40.7,64.1v-64.1h21.9v104.8h-21.9L956.7,754v64.1H934.6z"/>
<path class="st16" d="M1083.7,799.8h-31.5l-5.1,18.2h-23.5l32.3-104.8h24.1l32.3,104.8h-23.5L1083.7,799.8z M1077.9,779.1l-9.9-34.9
	l-9.9,34.9H1077.9z"/>
<path class="st16" d="M1138.5,756.5l26.9-43.2h27.2l-33.6,49.6l36.8,55.2h-28.6l-28.7-45.4v45.4h-22V713.3h22L1138.5,756.5
	L1138.5,756.5z"/>
</svg>
